{"title":"tinkerbell al rescate de las hadas 2010.rmvb","uid":7377769,"size":258107512,"categoryP":"video","categoryS":"other","magnet":"?xt=urn:btih:3e377c67851809d022ba63da3b8b65c0dc8c5913&amp;dn=tinkerbell+al+rescate+de+las+hadas+2010.rmvb&amp;tr=udp%3A%2F%2Ftracker.openbittorrent.com%3A80&amp;tr=udp%3A%2F%2Fopen.demonii.com%3A1337&amp;tr=udp%3A%2F%2Ftracker.coppersurfer.tk%3A6969&amp;tr=udp%3A%2F%2Fexodus.desync.com%3A6969","seeders":1,"leechers":0,"uploader":"hacker1260","files":1,"time":1340408953,"description":"IDIOMA: ESPAÃ‘OL LATINO\n\nescate de las hadas 2010.rmvb\nFormat                           : RealMedia\nFile size                        : 246 MiB\nDuration                         : 1h 16mn\nOverall bit rate                 : 447 Kbps\n\nVideo\nID                               : 1\nFormat                           : RealVideo 4\nCodec ID                         : RV40\nCodec ID/Info                    : Based on AVC (H.264), Real Player 9\nDuration                         : 1h 16mn\nBit rate                         : 383 Kbps\nWidth                            : 640 pixels\nHeight                           : 352 pixels\nDisplay aspect ratio             : 16:9\nFrame rate                       : 23.000 fps\nResolution                       : 12 bits\nBits/(Pixel*Frame)               : 0.074\nStream size                      : 209 MiB (85%)\n\nAudio\nID                               : 0\nFormat                           : Cooker\nCodec ID                         : cook\nCodec ID/Info                    : Based on G.722.1, Real Player 6\nDuration                         : 1h 10mn\nBit rate                         : 64.1 Kbps\nChannel(s)                       : 2 channels\nSampling rate                    : 44.1 KHz\nResolution                       : 16 bits\nStream size                      : 32.1 MiB (13%)\n","torrent":{"xt":"urn:btih:3e377c67851809d022ba63da3b8b65c0dc8c5913","amp;dn":"tinkerbell+al+rescate+de+las+hadas+2010.rmvb","amp;tr":["udp%3A%2F%2Ftracker.openbittorrent.com%3A80","udp%3A%2F%2Fopen.demonii.com%3A1337","udp%3A%2F%2Ftracker.coppersurfer.tk%3A6969","udp%3A%2F%2Fexodus.desync.com%3A6969"],"infoHash":"3e377c67851809d022ba63da3b8b65c0dc8c5913","infoHashBuffer":{"type":"Buffer","data":[62,55,124,103,133,24,9,208,34,186,99,218,59,139,101,192,220,140,89,19]},"announce":[],"urlList":[]}}